# xmcd
# 
# Track frame offsets:
#     150
#     78391
#     159508
#     206572
# 
# Disc length: 4183
# 
# Revision: 0
# Processed by: cddbd v1.5.2PL0 Copyright (c) Steve Scherf et al.
# Submitted via: fre:ac v1.0.17
# 
DISCID=29105504
DTITLE=Cécile Hemmen - Et wor emol ... déi rout
DYEAR=2007
DGENRE=
TTITLE0=Hänsel a Gréidel
TTITLE1=De Fräschekinnek
TTITLE2=D'Äschepuddel
TTITLE3=D'Schneewittchen
EXTD=
EXTT0=
EXTT1=
EXTT2=
EXTT3=
PLAYORDER=
